<?xml version="1.0" encoding="UTF-8"?>
<svg xmlns="http://www.w3.org/2000/svg" xmlns:xlink="http://www.w3.org/1999/xlink" viewBox="0 0 650 472">
  <defs>
    <style>.cls-1,.cls-41,.cls-47,.cls-48,.cls-51{fill:none;}.cls-2,.cls-3{opacity:0.7;}.cls-3{fill:url(#radial-gradient);}.cls-34,.cls-4,.cls-43,.cls-45{fill:#fff;}.cls-5{fill:#b1b8b9;}.cls-6{fill:#3d3d3d;}.cls-7{fill:#e5f4f6;}.cls-8{fill:#272626;}.cls-9{fill:#c1974a;}.cls-10{fill:#0075a8;}.cls-11{fill:#8ad6f2;}.cls-12{fill:#4dbdeb;}.cls-13{fill:url(#linear-gradient);}.cls-14{fill:#ca3333;}.cls-15{fill:#983334;}.cls-16{fill:#f28486;}.cls-17{fill:url(#linear-gradient-2);}.cls-18{fill:#a2a1a1;}.cls-19,.cls-22,.cls-25,.cls-55,.cls-65{fill:#272733;}.cls-19{opacity:0.12;}.cls-20{fill:#727a7c;}.cls-21{fill:#b1b7b8;}.cls-22,.cls-24{opacity:0.2;}.cls-23{fill:#5d6869;}.cls-26{fill:#a8dff4;}.cls-27,.cls-30{fill:#dbdbd9;}.cls-27,.cls-34{stroke:#3d3d3d;}.cls-27,.cls-34,.cls-41,.cls-43,.cls-45,.cls-47,.cls-48,.cls-49,.cls-51,.cls-52{stroke-miterlimit:10;}.cls-27{stroke-width:0.8px;}.cls-28{fill:#cac9c9;}.cls-29{fill:#f6f7f8;}.cls-31{fill:url(#linear-gradient-3);}.cls-32{fill:#f4f5f6;}.cls-33{fill:#ccc9c8;}.cls-34{stroke-width:0.6px;}.cls-35{fill:#c9c8c8;}.cls-36{fill:#211e1f;}.cls-37{fill:#e2f3f8;}.cls-38{fill:#959494;}.cls-39{fill:#3e3e3d;}.cls-40{fill:#7f3f97;}.cls-41{stroke:#ffd262;stroke-width:4.48px;}.cls-42{fill:url(#linear-gradient-4);}.cls-43{stroke:#dae2e2;}.cls-43,.cls-45{stroke-width:0.5px;}.cls-44{fill:#dae2e2;}.cls-45{stroke:#b1b7b8;}.cls-46{clip-path:url(#clip-path);}.cls-47,.cls-48,.cls-49,.cls-51,.cls-52{stroke:#044154;stroke-linecap:round;}.cls-47{stroke-width:0.23px;}.cls-48{stroke-width:0.47px;}.cls-49,.cls-52{fill:#3493b9;}.cls-49{stroke-width:0.27px;}.cls-50{fill:#6bc9ed;}.cls-51{stroke-width:0.12px;}.cls-52{stroke-width:0.55px;}.cls-53{fill:#f1f9fc;}.cls-54{fill:#565e66;}.cls-55{opacity:0.1;}.cls-56{fill:url(#linear-gradient-5);}.cls-57{fill:#72797b;}.cls-58{fill:url(#linear-gradient-6);}.cls-59{opacity:0.35;}.cls-60{fill:url(#linear-gradient-7);}.cls-61{opacity:0.5;fill:url(#linear-gradient-8);}.cls-62{fill:url(#linear-gradient-9);}.cls-63{fill:#3494ba;}.cls-64{fill:#40464c;}.cls-65,.cls-69{opacity:0.3;}.cls-66{fill:#bbc4c5;}.cls-67{fill:#99a1a2;}.cls-68{fill:#ffd262;}.cls-69{fill:url(#linear-gradient-10);}.cls-70{opacity:0.85;}.cls-71{fill:#fffbf3;}</style>
    <radialGradient id="radial-gradient" cx="497.12" cy="241.5" r="137.25" gradientUnits="userSpaceOnUse">
      <stop offset="0.55" stop-color="#f7e7e0"></stop>
      <stop offset="0.9" stop-color="#fff"></stop>
    </radialGradient>
    <linearGradient id="linear-gradient" x1="63.31" y1="75.06" x2="63.31" y2="0.21" gradientUnits="userSpaceOnUse">
      <stop offset="0.1" stop-color="#3d3d3d"></stop>
      <stop offset="0.34" stop-color="#7f7f7f"></stop>
      <stop offset="0.56" stop-color="#b6b6b6"></stop>
      <stop offset="0.75" stop-color="#dedede"></stop>
      <stop offset="0.91" stop-color="#f6f6f6"></stop>
      <stop offset="1" stop-color="#fff"></stop>
    </linearGradient>
    <linearGradient id="linear-gradient-2" x1="107.62" y1="192" x2="132.61" y2="167.01" gradientTransform="translate(-24.63 15.7) rotate(-7.09)" gradientUnits="userSpaceOnUse">
      <stop offset="0" stop-color="#b1b8b9"></stop>
      <stop offset="1" stop-color="#99a1a2"></stop>
    </linearGradient>
    <linearGradient id="linear-gradient-3" x1="144.21" y1="204.53" x2="150.09" y2="204.53" gradientTransform="translate(428.93 17.42)" gradientUnits="userSpaceOnUse">
      <stop offset="0" stop-color="#8e8f8e"></stop>
      <stop offset="1" stop-color="#a4a2a2"></stop>
    </linearGradient>
    <linearGradient id="linear-gradient-4" x1="808.67" y1="202.19" x2="808.67" y2="179.8" gradientTransform="matrix(-1, 0, 0, 1, 1144.67, 0)" gradientUnits="userSpaceOnUse">
      <stop offset="0" stop-color="#ffd263"></stop>
      <stop offset="0.48" stop-color="#fcd065"></stop>
      <stop offset="0.77" stop-color="#f4ca6a"></stop>
      <stop offset="0.97" stop-color="#e9c171"></stop>
      <stop offset="1" stop-color="#e3b24d"></stop>
    </linearGradient>
    <clipPath id="clip-path">
      <path class="cls-1" d="M561.41,276.15V257.89h-23.8v18.26a30.47,30.47,0,0,0,23.8,0Z"></path>
    </clipPath>
    <linearGradient id="linear-gradient-5" x1="63.31" y1="74.27" x2="63.31" gradientTransform="translate(100.44 -26.18) rotate(90)" gradientUnits="userSpaceOnUse">
      <stop offset="0" stop-color="#778283"></stop>
      <stop offset="0.95" stop-color="#fff"></stop>
    </linearGradient>
    <linearGradient id="linear-gradient-6" x1="3556.91" y1="-1676.79" x2="3611.3" y2="-1731.18" gradientTransform="matrix(-0.9, 0.43, 0.43, 0.9, 4032.02, 131.99)" gradientUnits="userSpaceOnUse">
      <stop offset="0" stop-color="#4dbdeb"></stop>
      <stop offset="1" stop-color="#8ad6f2"></stop>
    </linearGradient>
    <linearGradient id="linear-gradient-7" x1="3545.65" y1="-1703.99" x2="3622.56" y2="-1703.99" gradientTransform="matrix(-0.9, 0.43, 0.43, 0.9, 4032.02, 131.99)" gradientUnits="userSpaceOnUse">
      <stop offset="0" stop-color="#0075a8"></stop>
      <stop offset="1" stop-color="#259983"></stop>
    </linearGradient>
    <linearGradient id="linear-gradient-8" x1="3548.64" y1="-1709.54" x2="3598.25" y2="-1709.54" gradientTransform="matrix(-0.9, 0.43, 0.43, 0.9, 4032.02, 131.99)" gradientUnits="userSpaceOnUse">
      <stop offset="0" stop-color="#0075a8"></stop>
      <stop offset="1" stop-color="#0075a8" stop-opacity="0"></stop>
    </linearGradient>
    <linearGradient id="linear-gradient-9" x1="3602.63" y1="-1707.19" x2="3619.14" y2="-1707.19" gradientTransform="matrix(-0.9, 0.43, 0.43, 0.9, 4032.02, 131.99)" gradientUnits="userSpaceOnUse">
      <stop offset="0" stop-color="#e3f4fa" stop-opacity="0.1"></stop>
      <stop offset="1" stop-color="#c6e9f6"></stop>
    </linearGradient>
    <linearGradient id="linear-gradient-10" x1="131.33" y1="325.29" x2="131.33" y2="258.64" gradientTransform="translate(116.53)" gradientUnits="userSpaceOnUse">
      <stop offset="0" stop-color="#c1974a"></stop>
      <stop offset="1" stop-color="#f2ebdc"></stop>
    </linearGradient>
  </defs>
  <g id="BG">
    <g class="cls-2">
      <path class="cls-3" d="M606.45,390c10-28.73,15.67-61.8,15.67-97,0-110.46-56-200-125-200s-125,89.54-125,200c0,35.2,5.69,68.27,15.67,97Z"></path>
    </g>
    <rect class="cls-4" y="390" width="650" height="82"></rect>
    <polygon class="cls-5" points="25 389.76 100 389.25 175 388.96 325 388.71 475 388.95 550 389.25 625 389.76 550 390.27 475 390.56 325 390.8 175 390.56 100 390.26 25 389.76"></polygon>
  </g>
  <g id="Layer_1" data-name="Layer 1">
    <path class="cls-4" d="M450.48,218.27a22.79,22.79,0,1,1,22.76-22.84A22.85,22.85,0,0,1,450.48,218.27Z"></path>
    <path class="cls-6" d="M450.48,173A22.44,22.44,0,1,1,428,195.43,22.39,22.39,0,0,1,450.48,173m0-.7a23.14,23.14,0,1,0,23.11,23.09,23.14,23.14,0,0,0-23.11-23.09Z"></path>
    <path class="cls-7" d="M454.12,175.22a16.64,16.64,0,0,1,0,33.27s8.78-4.24,8.78-17.08C462.9,181.18,454.12,175.22,454.12,175.22Z"></path>
    <polygon class="cls-8" points="450.28 200.68 437.82 200.8 437.7 188.27 450.19 188.19 450.28 200.68"></polygon>
    <polygon class="cls-1" points="354 210.02 318.01 210.02 318.01 209.22 313.53 209.22 313.53 210.02 308.58 210.02 306.35 212.26 306.35 293.95 361.18 293.95 363.42 291.71 363.42 210.02 358.47 210.02 358.47 209.22 354 209.22 354 210.02"></polygon>
    <polygon class="cls-6" points="354 210.02 354 209.22 353.2 209.22 318.81 209.22 318.01 209.22 318.01 210.02 354 210.02"></polygon>
    <polygon class="cls-6" points="359.27 209.22 358.47 209.22 358.47 210.02 363.42 210.02 363.42 291.71 361.18 293.95 306.35 293.95 306.35 212.26 308.58 210.02 313.53 210.02 313.53 209.22 312.73 209.22 308.58 209.22 308.25 209.22 308.02 209.45 305.78 211.69 305.55 211.93 305.55 212.26 305.55 293.95 305.55 294.75 306.35 294.75 361.18 294.75 361.51 294.75 361.75 294.52 363.99 292.28 364.22 292.04 364.22 291.71 364.22 210.02 364.22 209.22 363.42 209.22 359.27 209.22"></polygon>
    <polygon class="cls-9" points="318.81 205.78 353.2 205.78 353.2 209.22 354 209.22 354 204.98 318.01 204.98 318.01 209.22 318.81 209.22 318.81 205.78"></polygon>
    <path class="cls-9" d="M313.53,200.51h19.26l-1.26-16.23a4.48,4.48,0,1,1,9,0l-1.27,16.23h19.26v8.71h.8v-9.51H340.08l1.2-15.37v-.06a5.28,5.28,0,1,0-10.55,0v.06l1.2,15.37h-19.2v9.51h.8Z"></path>
    <path class="cls-10" d="M171,219l-.22.74-.6,2q2.82.72,5.63,1.5,3.09.87,6.15,1.86l-17.69.27.74-2.5-12.47-3c1.47-.16,2.94-.24,4.41-.36s2.95-.18,4.43-.24q4.41-.19,8.84-.24H171m1.09-.82-1.09,0h-.79c-2.89,0-5.88.11-8.87.24-1.56.07-3,.15-4.44.24l-1.35.1c-1,.08-2.06.16-3.1.27l-4.6.5,4.5,1.07,11.66,2.78-.51,1.7-.31,1,1.09,0,17.69-.27,4.78-.07-4.54-1.49c-1.87-.61-3.89-1.22-6.18-1.87-1.43-.4-2.95-.81-4.84-1.3l.35-1.15.23-.74.32-1.05Z"></path>
    <polygon class="cls-11" points="182 225.07 169.52 222.1 170.27 219.59 152.58 219.86 165.05 222.84 164.31 225.34 182 225.07"></polygon>
    <path class="cls-12" d="M182,225.07c-2.12-.32-4.23-.7-6.33-1.11s-4.19-.86-6.28-1.32l-.57-.13.17-.57.73-2.51.56.74q-4.42.09-8.85,0c-1.48,0-3,0-4.43-.1s-2.95-.12-4.42-.24c1.47-.16,2.94-.24,4.41-.36s2.95-.18,4.43-.24q4.41-.19,8.84-.24H171l-.22.74-.77,2.5-.4-.7c2.07.53,4.14,1.07,6.2,1.65S180,224.41,182,225.07Z"></path>
    <path class="cls-10" d="M149.17,225h0c1.7,1.26,3.35,2.57,5,3.86l4.93,4q4.92,4,9.73,8.09l.6.51-.67.42L165.27,244l2.07,3.44,2.31,3.94c1.54,2.62,3,5.28,4.5,8L154.84,243l4-2.46L149.17,225m-2.89-3.14,2.21,3.56,9.21,14.84-3.28,2-.94.58.84.71L173.63,260l3.28,2.78L174.85,259c-1.59-2.91-3.06-5.52-4.51-8L168,247.06l-1.66-2.77,2.83-1.73.67-.41.94-.58-.84-.72-.6-.51c-3.61-3.06-6.79-5.71-9.74-8.1l-4.94-4c-.54-.41-1.06-.82-1.58-1.23-1.12-.87-2.29-1.78-3.46-2.65l-3.37-2.5Z"></path>
    <polygon class="cls-11" points="174.15 259.36 164.52 243.84 168.48 241.39 149.17 225.04 158.8 240.56 154.84 243.02 174.15 259.36"></polygon>
    <path class="cls-12" d="M174.15,259.36c-1.75-2.49-3.47-5-5.13-7.56s-3.34-5.1-5-7.67l-.29-.46.47-.29,4-2.48-.07.93q-4.83-4.08-9.58-8.26l-4.72-4.22c-1.55-1.43-3.12-2.84-4.64-4.31,1.7,1.26,3.35,2.57,5,3.86l4.93,4q4.92,4,9.73,8.09l.6.51-.67.42-4,2.43.18-.76q2.37,3.9,4.66,7.86C171.19,254,172.69,256.69,174.15,259.36Z"></path>
    <path class="cls-10" d="M143.34,227c.35,1.44.63,2.89.94,4.34s.57,2.89.82,4.35q.78,4.35,1.4,8.73l.12.78-.77-.13-2-.33c-.23,1.93-.48,3.85-.75,5.78-.31,2.11-.64,4.23-1,6.34h0l-2.6-17.51,2.58.42L143.34,227m-.33-4.68-.47,4.6-1.21,11.92-1.75-.28-1.08-.17.16,1.08,2.6,17.51.71,4.73.87-4.71c.36-1.93.7-4,1-6.37.21-1.47.42-3,.65-5l1.19.2.77.13,1.07.18-.15-1.08-.11-.78c-.41-2.86-.89-5.81-1.41-8.76-.27-1.54-.54-3-.82-4.37-.1-.45-.19-.89-.28-1.33-.21-1-.43-2-.67-3L143,222.27Z"></path>
    <polygon class="cls-11" points="145.94 244.46 143.34 226.95 142.03 239.72 139.45 239.3 142.05 256.81 143.36 244.05 145.94 244.46"></polygon>
    <path class="cls-12" d="M142.05,256.81q.07-3.23.27-6.42c.13-2.14.3-4.27.49-6.4l.05-.58.59.09,2.58.39-.66.65c-.44-2.91-.84-5.84-1.2-8.77-.17-1.46-.33-2.93-.48-4.4s-.27-2.94-.35-4.42c.35,1.44.63,2.89.94,4.34s.57,2.89.82,4.35q.78,4.35,1.4,8.73l.12.78-.77-.13-2.58-.43.64-.49q-.37,3.19-.82,6.37C142.78,252.58,142.45,254.7,142.05,256.81Z"></path>
    <path class="cls-13" d="M67.24,1V74.27H59.38V1h7.86M68,.21H58.59V75.06H68V.21Z"></path>
    <path class="cls-6" d="M97.08,74.27v0l-2.6,4.77L84.26,97.82a38.28,38.28,0,0,1,13.95,15.85q.44.92.81,1.83l.21.54c.17.44.34.87.5,1.32.07.2.13.4.2.6.14.43.28.85.41,1.27.06.19.1.39.16.58.12.44.25.87.35,1.31l.12.53c.1.46.21.92.29,1.38,0,.16,0,.32.08.48.09.48.17.95.23,1.43,0,.14,0,.28.05.42.07.5.12,1,.17,1.5,0,.12,0,.23,0,.35,0,.52.08,1,.09,1.57a2.72,2.72,0,0,1,0,.28c0,.55,0,1.1,0,1.65v.2c0,.57,0,1.14-.07,1.71,0,0,0,.1,0,.15,0,.59-.09,1.17-.16,1.76a.28.28,0,0,1,0,.09c-.07.6-.15,1.2-.25,1.8v0c-.1.61-.22,1.22-.35,1.82v0c-.4,1.85-1.61,5.42-1.61,5.42l.35-.31,4.33,7c6.7-5.27,12.19-8.27,14.13-8.27a.79.79,0,0,1,.62.21c1,1.07-3.11,7-10.28,14.33l-.37.39,5.11,8.32c5.35-4.21,9.74-6.61,11.29-6.61a.66.66,0,0,1,.5.17c.78.86-2.49,5.56-8.22,11.47l-.29.29,5.1,8.29c4.09-3.21,7.44-5,8.63-5a.49.49,0,0,1,.38.12c.61.66-1.91,4.28-6.32,8.83l-.17.17,5.86,9.53c2.87-2.25,5.22-3.53,6-3.53a.34.34,0,0,1,.27.09c.43.47-1.35,3-4.46,6.23l-.09.09,4.92,8c2-1.59,3.67-2.49,4.25-2.49a.25.25,0,0,1,.19.06c.29.32-.94,2.08-3.08,4.29l-.13.13,4.41,7.18a5.8,5.8,0,0,1,1.49-.19,6.07,6.07,0,1,1-5.74,4.07l-6.73-5.08-.15.12c-2.11,1.7-3.81,2.71-4.39,2.71a.26.26,0,0,1-.17-.05c-.28-.32.81-2.06,2.84-4.19l-7.49-5.66-.1.07c-3.07,2.47-5.54,3.95-6.37,3.95a.3.3,0,0,1-.25-.09c-.41-.45,1.13-2.93,4-6l-8.92-6.74-.19.15c-4.35,3.49-7.85,5.58-9,5.58a.45.45,0,0,1-.35-.12c-.58-.63,1.62-4.17,5.74-8.51l-7.76-5.86-.32.25c-5.66,4.54-10.2,7.26-11.74,7.26a.61.61,0,0,1-.46-.15c-.76-.84,2.13-5.47,7.53-11.13l-7.79-5.89-.42.34c-7.07,5.66-12.75,9.07-14.67,9.07a.76.76,0,0,1-.57-.19c-1-1,2.66-6.84,9.42-13.93l-6.6-5,.27-.25a38.31,38.31,0,0,1-10,1.34c-1.09,0-2.17,0-3.25-.14h0c-.52,0-1-.1-1.56-.16l-.14,0c-.5-.07-1-.14-1.49-.23l-.18,0c-.49-.08-1-.18-1.48-.28l-.12,0c-1.27-.28-2.53-.63-3.76-1s-2.46-.88-3.65-1.41l-.36-.15-1.07-.51-.51-.26-1-.51-.57-.33c-.3-.17-.6-.34-.9-.53s-.41-.25-.61-.38l-.84-.54-.64-.44-.79-.56-.66-.51L39.2,160l-.87-.74c-.3-.25-.58-.51-.87-.77l-.85-.8-.53-.54c-.25-.25-.49-.49-.73-.75s-.35-.38-.52-.58-.46-.51-.68-.77-.34-.4-.5-.61-.43-.53-.64-.81l-.48-.63c-.21-.28-.41-.57-.61-.86s-.3-.42-.44-.64-.4-.62-.6-.93l-.39-.62c-.21-.36-.41-.72-.61-1.08-.1-.18-.21-.36-.3-.54-.3-.55-.58-1.11-.85-1.68A38.46,38.46,0,0,1,42.44,98L32.14,79.06l-2.6-4.77v0H97.08M76.62,79.06H50l4.39,13.73a38.06,38.06,0,0,1,9-1.09,38.47,38.47,0,0,1,8.83,1l4.37-13.67m20.46-5.59H28.74v1l.1.2,2.6,4.78,10,18.26A39.38,39.38,0,0,0,28,147c.27.55.55,1.11.87,1.71l.2.35.11.2c.2.37.41.74.63,1.1l.29.47.1.16c.2.32.4.64.61,1l.45.65c.21.29.41.59.63.88l.48.64L33,155l.51.62.69.79.12.13.42.46c.22.24.46.48.69.72l0,0,.17.18.37.37c.26.26.54.51.81.76l.06.06.89.79.07.06.82.69.55.43.18.14.15.12.53.4.73.52.07,0,.09.06.56.39.86.56.62.39.92.54.59.33,1,.52.39.2.13.06c.36.18.72.36,1.09.52l.22.1.15.07c1.21.53,2.46,1,3.72,1.43a39.65,39.65,0,0,0,3.84,1l.13,0c.5.11,1,.2,1.51.29h.06l.11,0c.51.09,1,.16,1.52.23l.15,0c.53.07,1.06.12,1.59.17,1.12.09,2.24.14,3.34.14a39.29,39.29,0,0,0,9.41-1.15l5.76,4.35c-2.56,2.75-10.91,12.07-8.83,14.36a1.51,1.51,0,0,0,1.17.46c2.67,0,9.54-4.74,15.1-9.2l6.58,5c-2.39,2.57-8.65,9.67-6.92,11.56a1.34,1.34,0,0,0,1,.42c2.16,0,7.62-3.75,12.07-7.3l6.56,4.95c-2.41,2.61-6.51,7.45-5.14,9a1.17,1.17,0,0,0,.94.38c2.06,0,7.26-4,9.24-5.52l7.71,5.83c-2.24,2.45-4.41,5.32-3.42,6.41a1.07,1.07,0,0,0,.84.35c1.45,0,4.77-2.46,6.48-3.81l6.29,4.75c-3.22,3.55-2.49,4.35-2.24,4.62a1,1,0,0,0,.76.32c1,0,3.17-1.53,4.55-2.62l5.79,4.38a6.87,6.87,0,0,0,11.27,6.77,6.86,6.86,0,0,0-5.7-11.86L139,205.63c3.78-4,3.11-4.71,2.79-5.07a1,1,0,0,0-.78-.32c-1,0-2.89,1.27-4,2.12l-4.13-6.72c5.36-5.61,4.47-6.6,4.13-7a1.1,1.1,0,0,0-.86-.35c-1.21,0-3.69,1.54-5.84,3.15l-5.07-8.24c5.07-5.26,7.12-8.51,6.08-9.65a1.26,1.26,0,0,0-1-.38c-1.42,0-4.68,1.81-8.42,4.66l-4.3-7a70.9,70.9,0,0,0,6.48-7.57c1.85-2.6,2.33-4.05,1.61-4.84a1.39,1.39,0,0,0-1.09-.43c-1.84,0-6.14,2.43-11.07,6.23l-4.33-7c3.81-3.92,12.27-13.14,10.24-15.37a1.56,1.56,0,0,0-1.21-.47c-2.25,0-7.79,3.15-13.92,7.89l-3.82-6.21c.39-1.2,1-3.29,1.32-4.58.13-.62.25-1.25.36-1.88s.19-1.25.27-1.88v-.09c.06-.58.12-1.16.16-1.8v-.14c0-.55.06-1.12.08-1.75v-.21c0-.51,0-1.06,0-1.68v-.28c0-.54,0-1.08-.09-1.61V127a1.8,1.8,0,0,0,0-.22c0-.51-.1-1-.16-1.53l0-.17,0-.26c-.07-.49-.15-1-.24-1.46l0-.19c0-.1,0-.2,0-.3-.09-.47-.2-.94-.3-1.4l0-.21c0-.11,0-.22-.07-.33-.11-.44-.23-.88-.35-1.31l-.07-.26-.1-.37c-.12-.39-.25-.79-.38-1.18l0-.11-.08-.24c0-.13-.08-.25-.13-.38-.15-.43-.32-.87-.49-1.3l0-.05-.08-.21-.13-.33c-.26-.64-.54-1.27-.83-1.87A39.17,39.17,0,0,0,85.32,97.55l9.86-18.1,2.6-4.78.1-.18v-1l-.8,0Zm-46,6.39H75.53L71.71,91.79a38.93,38.93,0,0,0-16.78,0l-3.84-12Z"></path>
    <path class="cls-14" d="M139.4,222.66a6.07,6.07,0,1,0,.42-8.56A6.08,6.08,0,0,0,139.4,222.66Z"></path>
    <path class="cls-15" d="M142.68,220.34a3.91,3.91,0,1,0,5.78-5.26,3.91,3.91,0,0,0-5.78,5.26Z"></path>
    <path class="cls-16" d="M140.11,214.43a5.32,5.32,0,0,0-.36,7.51S142.29,212.46,140.11,214.43Z"></path>
    <path class="cls-17" d="M138,205.52l4.56,7.42a15.89,15.89,0,0,1-1.64,2.23,13.9,13.9,0,0,1-2.55,1.57l-6.94-5.24c1-.84,2.18-1.82,3.37-2.9S137.08,206.48,138,205.52Zm-20.49-15.94c-2.48,2.26-4.89,4.32-7.06,6.07l10.6,8c1.44-1.13,3.27-2.68,5.21-4.45s3.66-3.44,4.92-4.76l-7-11.33C122.28,185.12,120,187.32,117.52,189.58Zm9.58,10.54c-1.77,1.6-3.48,3.07-5,4.31l8.66,6.54c1-.77,2.2-1.81,3.5-3s2.45-2.3,3.31-3.2l-5.69-9.25C130.48,197,128.86,198.51,127.1,200.12ZM108,179.06c-3.2,2.91-6.3,5.57-9.1,7.83L109,194.56c2-1.6,4.61-3.78,7.34-6.26s5.14-4.84,6.92-6.71l-6.67-10.85C114.1,173.32,111.16,176.16,108,179.06ZM97.44,167.48c-4,3.62-7.85,6.93-11.35,9.75L97,185.47c2.63-2.07,5.94-4.88,9.45-8.07s6.62-6.23,8.93-8.65l-7.16-11.65C105.08,160.32,101.42,163.85,97.44,167.48Zm-24.19.05,10.51,7.94c3.28-2.59,7.4-6.1,11.78-10.08s8.26-7.76,11.14-10.78l-6.89-11.2Z"></path>
    <path class="cls-10" d="M119.38,202.39l.65.49c-1.39,1.47-2.17,2.48-2,2.67s1.33-.55,3-1.88h0c1.44-1.13,3.27-2.68,5.21-4.45s3.66-3.44,4.92-4.76h0c1.48-1.57,2.33-2.65,2.16-2.84s-1.25.5-2.85,1.74l-.42-.69c3.3-2.59,5.91-3.89,6.32-3.44s-1.35,3-4.46,6.23l-.09.09c-1.38,1.42-3,3-4.76,4.59s-3.48,3.07-5,4.31l-.1.07c-3.49,2.8-6.2,4.33-6.62,3.86S116.49,205.43,119.38,202.39Z"></path>
    <path class="cls-10" d="M106.63,192.75l.92.69c-2,2.12-3.12,3.57-2.88,3.83s1.89-.77,4.29-2.66l.06-.05c2-1.6,4.61-3.78,7.34-6.26s5.14-4.84,6.92-6.71l.06-.06c2.1-2.21,3.3-3.75,3-4s-1.79.72-4.08,2.5l-.6-1c4.71-3.69,8.43-5.55,9-4.91s-1.91,4.28-6.32,8.83l-.17.17c-2,2-4.22,4.2-6.71,6.46s-4.89,4.32-7.06,6.07l-.19.15c-4.94,4-8.78,6.13-9.38,5.46S102.51,197.09,106.63,192.75Z"></path>
    <path class="cls-10" d="M93.88,183.12l1.19.89c-2.63,2.79-4.12,4.71-3.81,5.05s2.45-1,5.58-3.46l.16-.13c2.63-2.07,5.94-4.88,9.45-8.07s6.62-6.23,8.93-8.65l.15-.15c2.72-2.88,4.28-4.87,4-5.22s-2.36,1-5.38,3.31l-.78-1.27c6.15-4.84,11-7.28,11.79-6.44s-2.49,5.56-8.22,11.47l-.29.29c-2.51,2.58-5.45,5.42-8.64,8.32s-6.3,5.57-9.1,7.83l-.32.25c-6.43,5.15-11.42,8-12.2,7.11S88.48,188.78,93.88,183.12Z"></path>
    <path class="cls-10" d="M79.85,172.52l1.49,1.12c-3.3,3.49-5.06,6-4.67,6.44s3-1.38,6.86-4.43l.23-.18c3.28-2.59,7.4-6.1,11.78-10.08s8.26-7.76,11.14-10.78l.2-.21c3.41-3.59,5.46-6,5.07-6.41s-3.07,1.09-6.85,4l-1-1.59c7.69-6.06,13.8-9.11,14.75-8.06s-3.11,7-10.28,14.33l-.37.39c-3.14,3.22-6.8,6.75-10.78,10.38s-7.85,6.93-11.35,9.75l-.42.34c-8,6.43-14.27,10-15.24,8.88S73.09,179.61,79.85,172.52Z"></path>
    <path class="cls-10" d="M129.57,210.09l.45.33c-1,1.06-1.57,1.79-1.45,1.92s.91-.38,2.08-1.29l.09-.08c1-.77,2.2-1.81,3.5-3s2.45-2.3,3.31-3.2l.08-.09c1-1.07,1.6-1.81,1.48-1.95s-.89.37-2,1.26l-.29-.47c2.31-1.82,4.15-2.74,4.44-2.43s-.94,2.08-3.08,4.29l-.13.13c-.93,1-2,2-3.2,3.08s-2.33,2.06-3.37,2.9l-.15.12c-2.4,1.93-4.27,3-4.56,2.66S127.54,212.22,129.57,210.09Z"></path>
    <path class="cls-18" d="M431.68,233.16c-1.9,0-2.92-5.21-2.92-10.11s1-10.06,2.92-10.06l11.42,3.24.06.06a10.94,10.94,0,0,1,3,7.74,11.6,11.6,0,0,1-2.56,7.66l-.09.1-11.84,1.37Z"></path>
    <path class="cls-6" d="M431.68,213.34l11.24,3.21a10.65,10.65,0,0,1,2.94,7.48,11.33,11.33,0,0,1-2.47,7.42l-11.69,1.36h0c-1.42,0-2.57-4.38-2.57-9.76s1.15-9.71,2.57-9.71m.09-.7h-.09c-2.59,0-3.27,6.81-3.27,10.41s.68,10.46,3.27,10.46h.1l11.7-1.36.25,0,.18-.19a12,12,0,0,0,2.65-7.9,11.31,11.31,0,0,0-3.16-8l-.12-.11-.16,0-11.25-3.22-.1,0Z"></path>
    <path class="cls-19" d="M330.79,202.51l-1.26-16.23a4.48,4.48,0,1,1,9,0l-1.27,16.23h19.26v50.36H352V207H316v45.89h-4.48V202.51Z"></path>
    <polygon class="cls-20" points="308.58 210.02 363.42 210.02 363.42 291.71 361.18 293.95 306.35 293.95 306.35 212.26 308.58 210.02"></polygon>
    <rect class="cls-21" x="308.59" y="210.02" width="54.83" height="81.69" transform="translate(672.01 501.73) rotate(-180)"></rect>
    <rect class="cls-22" x="352.32" y="281.08" width="7.83" height="6.71" transform="translate(712.47 568.88) rotate(-180)"></rect>
    <rect class="cls-23" x="358.47" y="280.52" width="1.68" height="7.83" transform="translate(718.62 568.88) rotate(-180)"></rect>
    <rect class="cls-23" x="352.32" y="280.52" width="1.68" height="7.83" transform="translate(706.31 568.88) rotate(-180)"></rect>
    <rect class="cls-22" x="311.85" y="281.08" width="7.83" height="6.71" transform="translate(631.54 568.88) rotate(-180)"></rect>
    <rect class="cls-23" x="318.01" y="280.52" width="1.68" height="7.83" transform="translate(637.7 568.88) rotate(-180)"></rect>
    <rect class="cls-23" x="311.85" y="280.52" width="1.68" height="7.83" transform="translate(625.39 568.88) rotate(-180)"></rect>
    <g class="cls-24">
      <rect class="cls-25" x="358.47" y="217.98" width="1.68" height="7.83" transform="translate(718.62 443.79) rotate(-180)"></rect>
      <rect class="cls-25" x="352.32" y="217.98" width="1.68" height="7.83" transform="translate(706.31 443.79) rotate(-180)"></rect>
    </g>
    <g class="cls-24">
      <rect class="cls-25" x="318.01" y="213.38" width="1.68" height="7.83" transform="translate(637.7 434.59) rotate(-180)"></rect>
      <rect class="cls-25" x="311.85" y="213.38" width="1.68" height="7.83" transform="translate(625.39 434.59) rotate(-180)"></rect>
    </g>
    <polygon class="cls-26" points="342.41 224.26 337.57 248.96 333.08 247.27 329.04 277.47 329.6 278.28 336.67 255.82 341.16 257.51 342.97 225.08 342.41 224.26"></polygon>
    <polygon class="cls-4" points="342.41 224.26 335.34 246.73 330.85 245.03 329.04 277.47 336.11 255 340.6 256.7 342.41 224.26"></polygon>
    <path class="cls-27" d="M517,311.39a8.69,8.69,0,0,1,6.26-4.45c4.58-.81,6.82,1.62,6.82,1.62s34.61,19.59,34.61,86.23c-27.33,24.8-52.82.77-52.82.77S527.87,369.3,517,311.39Z"></path>
    <path class="cls-27" d="M496,309.54a8.75,8.75,0,0,0-6.27-4.48c-4.6-.79-6.83,1.58-6.83,1.58s-34.62,19.65-34.62,86.3c27.34,24.79,52.8.72,52.8.72S485.06,367.43,496,309.54Z"></path>
    <path class="cls-28" d="M512.86,395.32s6.23-21.21,17.62-23.15,19.75,3.73,22.79,29.21c-1.78-37.74-10.16-50.56-10.16-50.56L521,354.2A94.92,94.92,0,0,1,512.86,395.32Z"></path>
    <path class="cls-29" d="M555,399.68s7.48-3.76,8.66-5.8c.7-26.82-7.13-45-7.13-45l-10.21,2.74S555,365.06,555,399.68Z"></path>
    <path class="cls-6" d="M520.11,360.64l.09-.17a11.43,11.43,0,0,0,1.08.51h0c.71.28,1.77.68,3.12,1.1h0a43.67,43.67,0,0,0,11.45,1.55h0a50.15,50.15,0,0,0,24.62-6.78h0l.1.17c-9.48,5.23-18,6.81-24.72,6.81h0c-9.66,0-15.71-3.18-15.74-3.19Zm0,0Z"></path>
    <path class="cls-6" d="M538.72,382.33a33.8,33.8,0,0,1-20.46-7h0l.14-.13a12.09,12.09,0,0,0,1.44,1.07h0a28.88,28.88,0,0,0,4.13,2.4h0a33.72,33.72,0,0,0,14.75,3.46h0c7.07,0,15.46-2.27,24.51-9.48h0l.13.17c-9.09,7.17-17.55,9.47-24.62,9.47h0Zm-20.46-7Z"></path>
    <path class="cls-28" d="M449.12,392.59s-.6-21.94,13.06-21.94,9.14,32.15,9.14,32.15a35.15,35.15,0,0,0,28.38-9.75c-6.78-11.61-8.1-38.93-8.1-38.93a157.38,157.38,0,0,1-36.3-7A143.2,143.2,0,0,0,449.12,392.59Z"></path>
    <path class="cls-6" d="M451.9,357.52l.15-.12a10.83,10.83,0,0,0,1.43,1.07h0a27.15,27.15,0,0,0,4.51,2.41h0a45.58,45.58,0,0,0,18.6,3.53h0a73.61,73.61,0,0,0,16.31-1.94h0l0,.19a74.07,74.07,0,0,1-16.35,1.95h0c-16.91,0-24.63-7.05-24.69-7.09Zm0,0Z"></path>
    <path class="cls-6" d="M449.15,374.24l.17-.07a13.26,13.26,0,0,0,1.16,1.48h0A20.77,20.77,0,0,0,454.3,379h0c3.58,2.39,9.24,4.82,17.7,4.82h0c6.24,0,14.05-1.35,23.61-5h0l.09.19c-9.61,3.63-17.43,5-23.7,5h0c-17,0-22.82-9.76-22.82-9.76Z"></path>
    <path class="cls-27" d="M495.06,177.86a3.62,3.62,0,0,0,2.27.61,6.8,6.8,0,0,0,2.57-.45l-.33-43.16a3.35,3.35,0,0,0-2.21-.86,2.8,2.8,0,0,0-2.09,1Z"></path>
    <path class="cls-28" d="M497.12,134.39v41.45H495.4l.18-40.73A1.68,1.68,0,0,1,497.12,134.39Z"></path>
    <path class="cls-30" d="M568.93,224.19c0,26.53-30.5,48.07-68.13,48.07s-68.14-21.54-68.14-48.07,30.53-48.07,68.14-48.07S568.93,197.68,568.93,224.19Z"></path>
    <path class="cls-6" d="M452.31,258.61c-12.41-8.75-20.13-20.94-20.13-34.42h0c0-13.48,7.72-25.66,20.13-34.42h0c12.43-8.77,29.59-14.16,48.49-14.16h0c18.91,0,36.06,5.39,48.49,14.16h0c12.44,8.76,20.17,20.94,20.17,34.42h0c0,13.48-7.73,25.67-20.17,34.42h0c-12.43,8.78-29.58,14.2-48.49,14.2h0c-18.9,0-36.06-5.42-48.49-14.2Zm.63-68c-12.23,8.65-19.72,20.52-19.72,33.57h0c0,13.07,7.49,24.95,19.72,33.56h0c12.2,8.61,29.16,14,47.86,14h0c18.71,0,35.65-5.37,47.87-14h0c12.22-8.61,19.73-20.49,19.73-33.56h0c0-13.05-7.51-24.92-19.73-33.57h0c-12.22-8.58-29.16-14-47.87-14h0c-18.7,0-35.66,5.38-47.86,14Z"></path>
    <path class="cls-30" d="M575.76,234.72v-.19l-14.83-1.72-.09-.09a14.69,14.69,0,0,1-3.27-9.77,13.79,13.79,0,0,1,3.94-9.9l.06-.06.08,0c14.42-4,14.42-4,14.47-4h0l.08,0c2.27.16,3.52,6.76,3.52,12.88s-1.28,12.87-3.65,12.87Z"></path>
    <path class="cls-6" d="M576.12,209.3h0c1.8.13,3.24,5.71,3.24,12.54s-1.47,12.52-3.3,12.52v-.15l-15-1.74a14.44,14.44,0,0,1-3.18-9.53,13.58,13.58,0,0,1,3.83-9.64l14.37-4m0-.7c-.11,0-.38.08-14.57,4l-.16.05-.12.11A14.16,14.16,0,0,0,557.22,223c0,6.38,3.23,9.87,3.37,10l.17.19.25,0,14.4,1.66v.23h.7c2.75,0,4-6.85,4-13.22,0-6.2-1.2-13-3.84-13.23h-.14Z"></path>
    <path class="cls-31" d="M579,221.94c0,6.14-1.3,11.13-2.94,11.13s-3-5-3-11.13,1.34-11.11,3-11.11S579,215.82,579,221.94Z"></path>
    <path class="cls-32" d="M561.35,214.7l11.88-3.13s-4.34,2.68-2.39,17.6c-2.89-.81-11.84-3.69-11.84-3.69A12,12,0,0,1,561.35,214.7Z"></path>
    <path class="cls-4" d="M561.81,194.51a22.43,22.43,0,1,1-22.44-22.44A22.42,22.42,0,0,1,561.81,194.51Z"></path>
    <path class="cls-6" d="M516.58,194.51a22.8,22.8,0,0,1,22.79-22.8h0a22.77,22.77,0,0,1,22.77,22.8h0a22.76,22.76,0,0,1-22.77,22.79h0a22.79,22.79,0,0,1-22.79-22.79Zm7.19-15.6a22,22,0,0,0-6.46,15.6h0a22.07,22.07,0,0,0,6.46,15.61h0a22.06,22.06,0,0,0,15.6,6.48h0A22,22,0,0,0,555,210.12h0a21.94,21.94,0,0,0,6.46-15.61h0a21.87,21.87,0,0,0-6.46-15.6h0a21.93,21.93,0,0,0-15.62-6.45h0a22,22,0,0,0-15.6,6.45Z"></path>
    <path class="cls-28" d="M512.67,177.32s-50-2-50,43.09a207.77,207.77,0,0,0-26.35,6.4s-4.08-24.57,26.8-40.82A89.63,89.63,0,0,1,512.67,177.32Z"></path>
    <path class="cls-7" d="M533.77,175.75c-8.64,0-15.65,8.46-15.65,18.88A20.79,20.79,0,0,0,523,208.35h6.39a24.39,24.39,0,0,1-3.93-13.2C525.49,180.61,533.77,175.75,533.77,175.75Z"></path>
    <path class="cls-8" d="M505.3,225.23c8.61-8.63,1.9-22.24,1.9-22.24s-9.84,7.07-35.22,5.77c0,0,6.37,6.68,1.66,11.2-3.95,3.83,11.47,4.72,11.47,4.72S503.26,227.27,505.3,225.23Z"></path>
    <path class="cls-30" d="M423.48,233s26.72-15,79.74-15,81.2,17.14,81.2,17.14L570.71,341.57s-21.2,12.63-64.26,12.63-69.27-14.77-69.27-14.77Z"></path>
    <path class="cls-6" d="M506.45,354.65c-43.19,0-69.43-14.82-69.47-14.84h0l-.21-.11L423.05,233l.43,0,.22.38-.22-.38-.43,0-.07-.28.29-.15c.07,0,26.83-15,80-15h0c53.16,0,81.37,17.15,81.43,17.16h0l.24.14-13.77,107-.18.11c-.05.07-21.32,12.72-64.49,12.72Zm-68.74-15.49a4.48,4.48,0,0,0,.88.52h0l3.54,1.63h0a122.42,122.42,0,0,0,13.65,5.07h0a171.56,171.56,0,0,0,50.67,7.38h0c40.31,0,61.36-11.06,63.79-12.45h0a.11.11,0,0,0,.07,0h0l13.64-106-.07,0h0a8.38,8.38,0,0,1-1-.52h0c-.86-.47-2.18-1.15-3.9-1.93h0A123.52,123.52,0,0,0,563.59,227h0c-13.62-4.24-33.88-8.5-60.37-8.5h0c-49.64,0-76.15,13.12-79.24,14.73h0l13.63,106Z"></path>
    <path class="cls-28" d="M573.48,242.79s-12.91,32.57-6.14,99.67c2.65-.89,2.84-1.61,2.84-1.61l11.22-96.13Z"></path>
    <path class="cls-28" d="M425.5,236.79l13,97.6s6.71,4.29,22.1,8.46c0-46.24.67-116.28.67-116.28A104,104,0,0,0,425.5,236.79Z"></path>
    <path class="cls-28" d="M465.32,348.88l-3.39-71.41s8.38-4.27,35.07-4.62c25.29-.34,35.28,3.18,35.28,3.18l-2.35,76.4S502.31,357.51,465.32,348.88Z"></path>
    <path class="cls-6" d="M465.22,349.2l.1-.32.35,0-.35,0-.1.32-.23-.07-3.42-71.88.19-.11c.08,0,8.5-4.29,35.24-4.67h0c1.15,0,2.27,0,3.34,0h0c22.86,0,32,3.24,32,3.27h0l.25.11-2.34,76.9-.28.06a129.62,129.62,0,0,1-21.42,1.51h0a191.27,191.27,0,0,1-43.37-5.09Zm43.37,4.36a139.41,139.41,0,0,0,19.82-1.27h0c.56-.08.93-.12,1.19-.17h0l2.28-75.82s-.1,0-.16-.05h0c-.29-.08-.72-.22-1.33-.34h0a55.27,55.27,0,0,0-5.58-1.13h0a161,161,0,0,0-24.47-1.61h0c-1.07,0-2.19,0-3.34,0h0c-24.19.32-33.26,3.88-34.69,4.47h0l3.35,70.93a192.59,192.59,0,0,0,42.93,5Z"></path>
    <path class="cls-33" d="M384.32,212.81a7.94,7.94,0,1,0-10.71-3.37A7.93,7.93,0,0,0,384.32,212.81Z"></path>
    <path class="cls-33" d="M361,223.84a6.61,6.61,0,1,0-8.92-2.81A6.61,6.61,0,0,0,361,223.84Z"></path>
    <path class="cls-33" d="M354.88,234.92a6.62,6.62,0,1,0-8.93-2.81A6.61,6.61,0,0,0,354.88,234.92Z"></path>
    <path class="cls-33" d="M380.88,231.08c11.31-5.89,18.1-15.25,15.16-20.91s-14.51-5.47-25.82.43-18.1,15.25-15.16,20.9S369.56,237,380.88,231.08Z"></path>
    <path class="cls-6" d="M354.93,231.57c-1.33-2.56-.71-5.82,1.33-9.16h0c2.61-4.24,7.54-8.64,13.89-11.94h0c9.29-4.83,18.74-5.87,23.56-2.92h0a6.54,6.54,0,0,1,2.46,2.55h0c1.32,2.56.71,5.83-1.34,9.16h0c-2.6,4.25-7.53,8.64-13.88,12h0c-9.3,4.83-18.74,5.86-23.56,2.92h0a6.63,6.63,0,0,1-2.46-2.56Zm15.35-20.85c-6.31,3.29-11.21,7.66-13.77,11.85h0c-2,3.29-2.58,6.44-1.32,8.87h0a6.31,6.31,0,0,0,2.35,2.44h0c4.64,2.86,14,1.88,23.27-2.93h0c6.32-3.29,11.21-7.66,13.78-11.84h0c2-3.29,2.58-6.45,1.32-8.87h0a6.41,6.41,0,0,0-2.35-2.45h0c-4.65-2.85-14.05-1.88-23.27,2.93Z"></path>
    <path class="cls-34" d="M384.36,212.9a7.94,7.94,0,1,0-10.71-3.38A7.94,7.94,0,0,0,384.36,212.9Z"></path>
    <path class="cls-35" d="M407,269.1c-21.09,0-38.38-12.56-51.38-37.34l40.76-19.88c1.3,3.66,11.38,29.2,44.24,47C437.77,260.7,423.89,269.1,407,269.1Z"></path>
    <path class="cls-6" d="M396.18,212.44a70.85,70.85,0,0,0,8.68,15.88c6,8.52,17,20.66,35,30.54-3.8,2.38-17,9.84-32.83,9.84-20.83,0-37.93-12.37-50.83-36.76l40-19.5m.46-1.12-41.53,20.26c15.57,29.91,35.27,37.92,51.92,37.92,19.23,0,34.39-10.7,34.39-10.7-36-19.21-44.78-47.48-44.78-47.48Z"></path>
    <path class="cls-34" d="M361.09,223.93a6.62,6.62,0,1,0-8.93-2.81A6.62,6.62,0,0,0,361.09,223.93Z"></path>
    <path class="cls-34" d="M354.92,235a6.62,6.62,0,1,0-8.92-2.82A6.62,6.62,0,0,0,354.92,235Z"></path>
    <path class="cls-36" d="M369.73,252.25l0-.25a8.47,8.47,0,0,0,1.69,0h0a24.21,24.21,0,0,0,4.57-.79h0a42.49,42.49,0,0,0,15.42-7.74h0a72.52,72.52,0,0,0,14.38-15.08h0l.19.12a73.27,73.27,0,0,1-14.44,15.13h0c-12.23,9.32-21.78,8.62-21.79,8.63Z"></path>
    <path class="cls-36" d="M383.15,263.43l0-.23a9,9,0,0,0,1.56-.11h0a21.85,21.85,0,0,0,4.24-.95h0a39.22,39.22,0,0,0,13.94-8h0a66.82,66.82,0,0,0,12.53-14.82h0l.19.09A67.37,67.37,0,0,1,403,254.31h0c-10.87,9.32-19.83,9.11-19.84,9.12Z"></path>
    <path class="cls-4" d="M407,269.75a48.26,48.26,0,0,1-25.59-7.22,59.51,59.51,0,0,1-11.85-9.68.43.43,0,0,1-.08-.43.4.4,0,0,1,.36-.25c3.07-.11,11.29-1.19,21.35-8.86a74.72,74.72,0,0,0,14.37-14.92.42.42,0,0,1,.32-.16h0a.43.43,0,0,1,.32.17,100.07,100.07,0,0,0,29.22,26.69c1.92,1.17,3.9,2.31,5.88,3.37a.37.37,0,0,1,.21.33.39.39,0,0,1-.17.35c-.22.15-.62.42-1.18.76-3.72,2.31-17.11,9.85-33.17,9.85Z"></path>
    <path class="cls-20" d="M405.9,228.63a100.79,100.79,0,0,0,29.34,26.8q2.82,1.72,5.9,3.38c-.21.15-.61.41-1.16.75-4.13,2.57-17.17,9.79-33,9.79a47.83,47.83,0,0,1-25.38-7.16,58.71,58.71,0,0,1-11.77-9.62c2.82-.1,11.29-1.09,21.59-8.94a75.36,75.36,0,0,0,14.44-15m0-.8a.81.81,0,0,0-.64.32A74.46,74.46,0,0,1,391,243c-10,7.6-18.09,8.67-21.12,8.78a.81.81,0,0,0-.72.5.79.79,0,0,0,.17.85,60.06,60.06,0,0,0,11.92,9.76,48.71,48.71,0,0,0,25.8,7.27c16.16,0,29.64-7.58,33.38-9.91.57-.35,1-.61,1.19-.76a.81.81,0,0,0,.35-.71.77.77,0,0,0-.42-.66c-2-1.06-3.95-2.19-5.87-3.37a99.86,99.86,0,0,1-29.1-26.57.83.83,0,0,0-.64-.34Z"></path>
    <path class="cls-37" d="M422.38,246.21c-.55-.46-1.09-.91-1.61-1.36.29,2.44,1.58,14.89-1.32,22.74l-.14.36c2.14-.48,4.17-1.05,6.07-1.67Z"></path>
    <path class="cls-38" d="M380.93,231.16c11.31-5.89,18.09-15.25,15.15-20.91s-14.5-5.46-25.82.43-18.1,15.25-15.15,20.9S369.61,237.05,380.93,231.16Z"></path>
    <path class="cls-6" d="M355.08,231.6c-1.31-2.51-.71-5.73,1.32-9h0c2.59-4.22,7.51-8.6,13.84-11.91h0c9.28-4.82,18.71-5.83,23.46-2.92h0a6.58,6.58,0,0,1,2.41,2.51h0c1.31,2.52.71,5.74-1.33,9.06h0c-2.58,4.22-7.5,8.61-13.84,11.91h0c-9.26,4.82-18.7,5.83-23.45,2.92h0a6.47,6.47,0,0,1-2.41-2.52Zm15.2-20.89C364,214,359,218.39,356.46,222.59h0c-2,3.31-2.61,6.5-1.32,9h0a6.34,6.34,0,0,0,2.39,2.49h0c4.71,2.89,14.13,1.89,23.38-2.93h0c6.33-3.29,11.24-7.67,13.81-11.88h0c2-3.31,2.62-6.51,1.33-9h0a6.34,6.34,0,0,0-2.39-2.49h0c-4.71-2.88-14.13-1.89-23.38,2.93Z"></path>
    <path class="cls-39" d="M378.61,227c8-4.16,13-10.33,11.17-13.8s-9.73-2.92-17.71,1.23-13,10.33-11.17,13.8S370.64,231.1,378.61,227Z"></path>
    <path class="cls-33" d="M359.67,245.17a6.61,6.61,0,1,0-8.92-2.81A6.62,6.62,0,0,0,359.67,245.17Z"></path>
    <path class="cls-34" d="M359.72,245.26a6.62,6.62,0,1,0-8.93-2.82A6.62,6.62,0,0,0,359.72,245.26Z"></path>
    <polygon class="cls-40" points="475.15 268.62 475.15 268.62 475.15 268.62 475.15 268.62"></polygon>
    <polyline class="cls-41" points="356.24 250.87 356.24 202.75 315.77 202.75 315.77 250.87"></polyline>
    <path class="cls-42" d="M336,179.8a4.49,4.49,0,0,1,4.48,4.48l-1.4,17.91h-6.15l-1.4-17.91A4.48,4.48,0,0,1,336,179.8Z"></path>
    <path class="cls-14" d="M497.49,115a10.23,10.23,0,1,0,10.23,10.22A10.22,10.22,0,0,0,497.49,115Z"></path>
    <path class="cls-15" d="M501,126a6.54,6.54,0,1,1-13.07,0A6.54,6.54,0,0,1,501,126Z"></path>
    <path class="cls-16" d="M497.51,115.83a8.89,8.89,0,0,1,8.88,8.88S492.59,115.83,497.51,115.83Z"></path>
    <path class="cls-6" d="M497.49,115a10.23,10.23,0,1,1-10.25,10.22A10.2,10.2,0,0,1,497.49,115m0-.8a11,11,0,1,0,11,11,11,11,0,0,0-11-11Z"></path>
    <path class="cls-4" d="M547.48,366.46A97.46,97.46,0,0,1,515.59,361l-.26-.1,3.31-92.56,43.94-18.47-.9-8,23.69-7-.08.62c-.11.83-11.09,83.88,0,120.62l.09.3-.27.16c-10.81,6.55-23.47,9.87-37.62,9.87Z"></path>
    <path class="cls-20" d="M584.89,235.45s-11.22,83.54,0,120.8c-12.42,7.52-25.78,9.81-37.41,9.81a96,96,0,0,1-31.74-5.42l3.29-92,44-18.49-.91-7.93,22.78-6.75m1-1.11-1.18.35-22.78,6.74-.65.19.08.67.83,7.34-43.43,18.25-.47.2,0,.51-3.29,92,0,.57.53.2a97.54,97.54,0,0,0,32,5.48c14.23,0,27-3.34,37.83-9.93l.53-.32-.18-.59c-11-36.67-.09-119.63,0-120.46l.16-1.22Z"></path>
    <path class="cls-4" d="M453.87,363.73c-15.94,0-28.73-3.52-38-10.45l-.2-.15.05-.25c17.4-85.9,3.47-115.46,3.33-115.75l-.44-.88L438,243l-.9,8,38.46,17.36,3.31,92.6-.31.08a115.94,115.94,0,0,1-24.66,2.7Z"></path>
    <path class="cls-20" d="M419.42,237l18.13,6.34-.9,7.94,38.5,17.39,3.29,92a113.77,113.77,0,0,1-24.57,2.69c-12.26,0-26.79-2.16-37.75-10.37,17.63-87,3.3-116,3.3-116m-1.59-1.4.87,1.75h0c0,.08,3.56,7.43,4.89,25.27,2.24,29.84-3.25,65.54-8.25,90.23l-.1.5.4.3c9.34,7,22.2,10.53,38.23,10.53a115.23,115.23,0,0,0,24.76-2.72l.63-.15,0-.65-3.29-92,0-.5-.45-.2-38-17.15.83-7.36.08-.63-.61-.21-18.13-6.34-1.85-.65Z"></path>
    <path class="cls-37" d="M569.21,228.78,519,268.62l47.28-16.29-.9-7.94,19.08-5.75c.25-2,.55-4,.49-4A90.29,90.29,0,0,0,569.21,228.78Z"></path>
    <path class="cls-37" d="M475.15,268.62,430.66,230.1l-12.91,4.19,1.67,2.66a28,28,0,0,1,1.4,3.9l13.44,4.64-.9,7.93Z"></path>
    <path class="cls-4" d="M475.15,268.76a.42.42,0,0,1-.16,0l-38.5-17.12a.41.41,0,0,1-.24-.41l.87-7.62c-1.69-.59-10.26-3.54-22.21-7.33a.4.4,0,0,1-.09-.73,63.78,63.78,0,0,1,19.06-8H434a.41.41,0,0,1,.28.11l41.2,40.45a.4.4,0,0,1,.05.51A.41.41,0,0,1,475.15,268.76Z"></path>
    <path class="cls-20" d="M434,227.91l41.2,40.45-38.5-17.13.9-7.94s-9.06-3.17-22.52-7.44c10.47-6.36,18.92-7.94,18.92-7.94m0-.8h-.15c-.35.07-8.71,1.69-19.19,8a.81.81,0,0,0-.38.78.82.82,0,0,0,.56.67c11.34,3.6,19.65,6.44,21.89,7.22l-.83,7.3a.79.79,0,0,0,.47.82l38.5,17.13a1,1,0,0,0,.33.07.8.8,0,0,0,.66-.35.82.82,0,0,0-.1-1l-41.2-40.44a.79.79,0,0,0-.56-.23Z"></path>
    <circle class="cls-43" cx="527.02" cy="275.74" r="3.84"></circle>
    <circle class="cls-44" cx="525.82" cy="274.54" r="0.72"></circle>
    <circle class="cls-44" cx="528.22" cy="274.54" r="0.72"></circle>
    <circle class="cls-44" cx="528.22" cy="276.94" r="0.72"></circle>
    <circle class="cls-44" cx="525.82" cy="276.94" r="0.72"></circle>
    <circle class="cls-43" cx="525.28" cy="297.68" r="3.84"></circle>
    <circle class="cls-44" cx="524.08" cy="296.48" r="0.72"></circle>
    <circle class="cls-44" cx="526.48" cy="296.48" r="0.72"></circle>
    <circle class="cls-44" cx="526.48" cy="298.88" r="0.72"></circle>
    <circle class="cls-44" cx="524.08" cy="298.88" r="0.72"></circle>
    <circle class="cls-43" cx="524.51" cy="319.62" r="3.84"></circle>
    <circle class="cls-44" cx="523.31" cy="318.42" r="0.72"></circle>
    <circle class="cls-44" cx="525.71" cy="318.42" r="0.72"></circle>
    <circle class="cls-44" cx="525.71" cy="320.82" r="0.72"></circle>
    <circle class="cls-44" cx="523.31" cy="320.82" r="0.72"></circle>
    <circle class="cls-43" cx="523.73" cy="341.56" r="3.84"></circle>
    <circle class="cls-44" cx="522.53" cy="340.36" r="0.72"></circle>
    <circle class="cls-44" cx="524.93" cy="340.36" r="0.72"></circle>
    <circle class="cls-44" cx="524.93" cy="342.76" r="0.72"></circle>
    <circle class="cls-44" cx="522.53" cy="342.76" r="0.72"></circle>
    <path class="cls-44" d="M549.51,322.56c-6.25,0-16.19-1-16.19-1a47.75,47.75,0,0,0,32.39,0S555.76,322.56,549.51,322.56Z"></path>
    <path class="cls-45" d="M549.51,352.53c24.26,0,17.21-21,16.2-30.95a47.75,47.75,0,0,1-32.39,0C532.3,331.5,525.25,352.53,549.51,352.53Z"></path>
    <path class="cls-44" d="M449,319.75c-6.25,0-16.2-1-16.2-1a47.75,47.75,0,0,0,32.39,0S455.28,319.75,449,319.75Z"></path>
    <path class="cls-45" d="M449,349.72c24.25,0,17.21-21,16.19-31a47.75,47.75,0,0,1-32.39,0C431.82,328.69,424.78,349.72,449,349.72Z"></path>
    <path class="cls-44" d="M549.51,277c4.59,0,11.9-.84,11.9-.84a30.47,30.47,0,0,1-23.8,0S544.92,277,549.51,277Z"></path>
    <path class="cls-45" d="M549.51,302.59c-17.82,0-12.64-18-11.9-26.44a30.47,30.47,0,0,0,23.8,0C562.16,284.63,567.33,302.59,549.51,302.59Z"></path>
    <g class="cls-46">
      <path class="cls-44" d="M554.79,310.16v-1a.28.28,0,0,0,.12-.23V307.4h1l-.1-38.21-2.42.08,0,38.13h1v1.49a.24.24,0,0,0,.13.22h0v1a.14.14,0,0,0,.06.11.13.13,0,0,0,.08,0A.13.13,0,0,0,554.79,310.16Z"></path>
      <line class="cls-47" x1="554.26" y1="309.83" x2="554.26" y2="307.29"></line>
      <line class="cls-48" x1="554.26" y1="308.56" x2="554.25" y2="307.01"></line>
      <rect class="cls-49" x="553.11" y="268.99" width="2.2" height="37.95" transform="translate(-0.71 1.37) rotate(-0.14)"></rect>
      <rect class="cls-50" x="554.42" y="269.4" width="0.49" height="37.03" transform="translate(-0.71 1.37) rotate(-0.14)"></rect>
      <line class="cls-51" x1="553.57" y1="288.76" x2="553.57" y2="289.46"></line>
      <polyline class="cls-51" points="553.61 306.34 553.57 290.82 553.57 290.6"></polyline>
      <line class="cls-51" x1="553.56" y1="284.71" x2="553.57" y2="287.79"></line>
      <line class="cls-51" x1="553.52" y1="282.2" x2="553.52" y2="282.74"></line>
    </g>
    <line class="cls-52" x1="555.69" y1="274.1" x2="552.69" y2="274.1"></line>
    <line class="cls-52" x1="556" y1="280.12" x2="555.98" y2="272.34"></line>
    <path class="cls-37" d="M572,299.5a10.24,10.24,0,1,0,8,16.61c-.12-4.26-.16-8.58-.12-12.92A10.26,10.26,0,0,0,572,299.5Z"></path>
    <path class="cls-34" d="M619.65,304.33a7.65,7.65,0,1,1-7.64-7.68A7.63,7.63,0,0,1,619.65,304.33Z"></path>
    <path class="cls-30" d="M573.48,242.77a6.49,6.49,0,0,1,4.6-3.3c3.38-.58,5,1.18,5,1.18s25.36,14.41,25.36,63.27c-20,18.17-38.7.53-38.7.53S581.48,285.21,573.48,242.77Z"></path>
    <path class="cls-6" d="M589.19,312.68c-11.56,0-19.74-7.83-19.81-7.85h0l-.31-.3.21-.35a.44.44,0,0,0,.09-.11h0a1.85,1.85,0,0,1,.19-.37h0c.16-.34.43-.83.72-1.51h0a44.43,44.43,0,0,0,2.22-6.1h0a90.62,90.62,0,0,0,3.23-25.36h0A149.72,149.72,0,0,0,573,242.87h0l.51-.1.47.24-.47-.24-.51.1,0-.16,0-.16a6.43,6.43,0,0,1,1.16-1.57h0a6.84,6.84,0,0,1,3.86-2h0a6.2,6.2,0,0,1,1.43-.16h0a5.9,5.9,0,0,1,4,1.38h0c1.4.86,25.59,16,25.59,63.71h0v.24l-.18.17c-6.88,6.24-13.67,8.35-19.63,8.35Zm-18.73-8.29c.23.19.61.46,1.06.82h0a26.3,26.3,0,0,0,4,2.62h0a28.43,28.43,0,0,0,13.69,3.76h0c5.66,0,12.07-1.93,18.74-7.92h0c-.09-46.92-23.69-61.68-25-62.52h0l-.09-.08-.06,0h0V241a.35.35,0,0,1-.15-.12h0l-.61-.39h0a5.33,5.33,0,0,0-2.48-.58h0a8.84,8.84,0,0,0-1.26.13h0a6.1,6.1,0,0,0-3.13,1.58h0a6.59,6.59,0,0,0-1,1.25h0a152.23,152.23,0,0,1,2.8,27.88h0c0,20.65-5.27,31.48-6.41,33.6h0l0,.06Z"></path>
    <path class="cls-28" d="M574,243a7.69,7.69,0,0,1,3.95-2.72c2.82-.93,23.24,38.09,14.71,65.89,3.07,3.18-5,5.82-5,5.82s-4.73.11-16.73-5.73C579,286.66,577.66,257,574,243Z"></path>
    <path class="cls-34" d="M581,307.54a10.07,10.07,0,1,1-10.06-10.07A10.06,10.06,0,0,1,581,307.54Z"></path>
    <path class="cls-29" d="M581.47,240.52S607,253.61,607.72,303c0,0-3,8.78-12.15,8.78C605,296.78,597.5,256.55,581.47,240.52Z"></path>
    <path class="cls-34" d="M614.29,310a7.66,7.66,0,1,1-7.64-7.65A7.68,7.68,0,0,1,614.29,310Z"></path>
    <path class="cls-34" d="M600.05,314.1a7.66,7.66,0,1,1-7.66-7.65A7.65,7.65,0,0,1,600.05,314.1Z"></path>
    <path class="cls-6" d="M576.36,269.92a28.87,28.87,0,0,1,14.84-4h0a30.65,30.65,0,0,1,11.59,2.29h0l-.07.13a30.53,30.53,0,0,0-11.52-2.25h0a29.49,29.49,0,0,0-13.68,3.34h0c-.68.39-1,.62-1,.62h0l-.11-.15Z"></path>
    <path class="cls-6" d="M576,279.06h0l0-.14s.3.12.85.3h0a23.85,23.85,0,0,0,2.55.67h0a48,48,0,0,0,10.63,1h0a96.1,96.1,0,0,0,15.75-1.46h0l.06.14a92,92,0,0,1-15.81,1.49h0c-9.69,0-14.07-2-14.07-2Z"></path>
    <path class="cls-6" d="M574.7,288.43l.11-.15a6.71,6.71,0,0,0,1,.77h0a16.21,16.21,0,0,0,3.15,1.7h0a31.41,31.41,0,0,0,12.94,2.52h0a53.72,53.72,0,0,0,15.71-2.59h0l.07.16a54.14,54.14,0,0,1-15.78,2.59h0c-11.74,0-17.23-5-17.23-5Z"></path>
    <path class="cls-4" d="M592,293.73a32.62,32.62,0,0,1-13.4-2.61,17.61,17.61,0,0,1-3.29-1.78c-.3-.19-.53-.36-.71-.5a.38.38,0,0,1-.15-.38c2.34-13.18,1.9-28.53-1.32-45.61,0-.37.35-6.69,3.86-7.78a19.38,19.38,0,0,1,5.65-1,5.72,5.72,0,0,1,1.23.1.56.56,0,0,1,.17.09c.2.18,20.23,18.42,24.19,56.45a.39.39,0,0,1-.28.42A55.34,55.34,0,0,1,592,293.73Z"></path>
    <path class="cls-20" d="M582.6,234.46a5.33,5.33,0,0,1,1.13.09s20.07,17.88,24.06,56.19A54.73,54.73,0,0,1,592,293.33a32.13,32.13,0,0,1-13.24-2.58A17.2,17.2,0,0,1,575.5,289c-.3-.19-.53-.35-.7-.48,1.8-10.13,2.55-25.22-1.32-45.76,0,0,.31-6.3,3.59-7.32a19.08,19.08,0,0,1,5.53-1m0-.8a19.87,19.87,0,0,0-5.76,1c-3.78,1.17-4.14,7.76-4.16,8a1.11,1.11,0,0,0,0,.19c3.21,17,3.65,32.34,1.31,45.47a.81.81,0,0,0,.3.77c.25.19.49.36.76.53a18,18,0,0,0,3.34,1.8A33,33,0,0,0,592,294.13,56,56,0,0,0,608,291.51a.81.81,0,0,0,.57-.85c-2.08-19.94-8.56-34.28-13.64-42.79-5.51-9.26-10.48-13.73-10.69-13.92a.8.8,0,0,0-.34-.18,5.87,5.87,0,0,0-1.32-.11Z"></path>
    <path class="cls-53" d="M578.72,290.75A32.13,32.13,0,0,0,592,293.33c.86,0,1.77,0,2.7-.1.84-25.56-14.32-53.78-16.73-53A7.69,7.69,0,0,0,574,243c2.71,10.29,4.14,29,1.5,46h0A17.2,17.2,0,0,0,578.72,290.75Z"></path>
    <path class="cls-4" d="M519,268.7a.42.42,0,0,1-.34-.19.41.41,0,0,1,.07-.51l46.9-41.71a.37.37,0,0,1,.26-.1h.1a101.83,101.83,0,0,1,20.66,8.3.39.39,0,0,1,.2.39.37.37,0,0,1-.28.34l-24.05,7.25.86,7.61a.39.39,0,0,1-.24.41l-44,18.17Z"></path>
    <path class="cls-20" d="M565.92,226.58a100.91,100.91,0,0,1,20.57,8.27l-24.38,7.35.91,7.93L519,268.3l46.89-41.72m0-.8a.82.82,0,0,0-.53.21L518.5,267.7a.8.8,0,0,0,.53,1.4.85.85,0,0,0,.31-.06l44-18.17a.79.79,0,0,0,.49-.83l-.83-7.27,23.74-7.15a.8.8,0,0,0,.15-1.47,101.93,101.93,0,0,0-20.75-8.34.69.69,0,0,0-.2,0Z"></path>
    <polygon class="cls-54" points="63.31 120.66 76.62 79.06 94.48 79.06 65.31 132.61 63.31 131.75 66.43 130.41 63.31 120.66"></polygon>
    <polygon class="cls-55" points="63.31 120.66 76.62 79.06 94.48 79.06 65.31 132.61 63.31 131.75 66.43 130.41 63.31 120.66"></polygon>
    <rect class="cls-56" x="26.18" y="33.2" width="74.27" height="7.86" transform="translate(26.18 100.44) rotate(-90)"></rect>
    <polygon class="cls-1" points="63.31 120.66 50 79.06 76.62 79.06 63.31 120.66"></polygon>
    <polygon class="cls-57" points="97.08 74.27 97.08 74.29 78.16 74.27 97.08 74.27"></polygon>
    <polygon class="cls-57" points="48.46 74.27 29.54 74.29 29.54 74.27 48.46 74.27"></polygon>
    <circle class="cls-58" cx="63.47" cy="130.17" r="38.46"></circle>
    <g class="cls-59">
      <circle class="cls-60" cx="63.47" cy="130.17" r="38.46"></circle>
    </g>
    <path class="cls-61" d="M61.37,143.59a24.79,24.79,0,1,0,18.57-46,24.79,24.79,0,0,0-18.57,46Z"></path>
    <path class="cls-62" d="M30.45,116.93a33.67,33.67,0,0,0,18.6,43.84S37.43,99.64,30.45,116.93Z"></path>
    <path class="cls-63" d="M30.59,142.45c.68,1,1.35,2.06,2,3.1s1.47,1.95,2.19,2.92,1.58,1.84,2.35,2.75a15.46,15.46,0,0,0,1.28,1.28l1.32,1.22A33.51,33.51,0,0,0,52,160.81c1.14.32,2.26.7,3.42,1s2.33.47,3.51.58l1.78.14a11.92,11.92,0,0,0,1.79.08l1.79,0a12,12,0,0,0,1.8-.05l1.79-.16a12,12,0,0,0,1.79-.23c1.18-.24,2.39-.39,3.56-.7s2.37-.56,3.54-.92,2.31-.79,3.49-1.16h0a.07.07,0,0,1,.08,0,.06.06,0,0,1,0,.08,43.93,43.93,0,0,1-14.13,4.07,35.29,35.29,0,0,1-14.61-1.45A33.38,33.38,0,0,1,39,154.47a40.47,40.47,0,0,1-8.53-12,.07.07,0,0,1,0-.09.08.08,0,0,1,.08,0Z"></path>
    <circle class="cls-64" cx="63.46" cy="130.22" r="17.88"></circle>
    <circle class="cls-54" cx="63.46" cy="130.22" r="7.95"></circle>
    <polygon class="cls-57" points="48.46 74.27 50 79.06 66.43 130.41 61.3 132.61 32.14 79.06 29.54 74.29 48.46 74.27"></polygon>
    <circle class="cls-54" cx="63.46" cy="130.22" r="4.71"></circle>
    <circle class="cls-65" cx="63.46" cy="130.22" r="4.71"></circle>
    <polygon class="cls-54" points="48.46 74.27 50 79.06 94.48 79.06 97.08 74.29 48.46 74.27"></polygon>
  </g>
  <g id="Layer_3" data-name="Layer 3">
    <rect class="cls-66" x="363.73" y="323.51" width="8.88" height="124.37"></rect>
    <rect class="cls-66" x="123.11" y="323.51" width="8.88" height="124.37"></rect>
    <polygon class="cls-5" points="116 328.84 379.72 328.84 381.49 318.18 114.23 318.18 116 328.84"></polygon>
    <circle class="cls-64" cx="368.17" cy="461.2" r="8"></circle>
    <circle class="cls-54" cx="368.17" cy="461.2" r="3.55"></circle>
    <circle class="cls-64" cx="127.55" cy="461.2" r="8"></circle>
    <circle class="cls-54" cx="127.55" cy="461.2" r="3.55"></circle>
    <rect class="cls-57" x="362.84" y="444.77" width="10.66" height="6.22" transform="translate(736.34 895.76) rotate(-180)"></rect>
    <rect class="cls-67" x="122.22" y="444.77" width="10.66" height="6.22" transform="translate(255.1 895.76) rotate(-180)"></rect>
    <polygon class="cls-57" points="367.28 461.2 369.06 461.2 370.83 447.88 365.5 447.88 367.28 461.2"></polygon>
    <polygon class="cls-67" points="126.66 461.2 128.44 461.2 130.22 447.88 124.89 447.88 126.66 461.2"></polygon>
    <rect class="cls-22" x="363.73" y="328.84" width="8.88" height="2.22"></rect>
    <rect class="cls-22" x="123.11" y="328.84" width="8.88" height="2.22"></rect>
    <g class="cls-24">
      <path class="cls-25" d="M288.41,319a8.08,8.08,0,0,0,16.15,0v-.81H288.41Z"></path>
      <path class="cls-25" d="M212.62,318.18H184.39a30.6,30.6,0,0,0,28.23,0Z"></path>
    </g>
    <path class="cls-68" d="M198.51,258.64A30.58,30.58,0,0,1,228,281.25c.26,0,.51-.07.76-.07h91a8.07,8.07,0,0,1,0,16.14H304.56v19.9a8.08,8.08,0,0,1-16.15,0v-19.9H281V308.2a8.07,8.07,0,0,1-16.14,0V297.32h-36.1a6.77,6.77,0,0,1-.76-.08,30.59,30.59,0,1,1-29.51-38.6m-14.15,39.45a8.84,8.84,0,1,0-8.83-8.84,8.84,8.84,0,0,0,8.83,8.84"></path>
    <path class="cls-69" d="M198.51,258.64A30.58,30.58,0,0,1,228,281.25c.26,0,.51-.07.76-.07h91a8.07,8.07,0,0,1,0,16.14H304.56v19.9a8.08,8.08,0,0,1-16.15,0v-19.9H281V308.2a8.07,8.07,0,0,1-16.14,0V297.32h-36.1a6.77,6.77,0,0,1-.76-.08,30.59,30.59,0,1,1-29.51-38.6m-14.15,39.45a8.84,8.84,0,1,0-8.83-8.84,8.84,8.84,0,0,0,8.83,8.84"></path>
    <g class="cls-70">
      <path class="cls-71" d="M198,262.31a27.74,27.74,0,0,1,9.55,1.26,26,26,0,0,1,8.57,4.61,29.86,29.86,0,0,1,6.42,7.39,34.82,34.82,0,0,1,3.94,9l-1-.71,23-.16c7.66,0,15.34.06,23,.07s15.34.16,23,.29q5.74.07,11.5.25c3.83.11,7.66.21,11.49.37a.06.06,0,1,1,0,.12l-91.89.12h0a.11.11,0,0,1-.09-.08,31.81,31.81,0,0,0-9.8-16.1,26.45,26.45,0,0,0-8.26-4.73,28.87,28.87,0,0,0-9.4-1.56s-.06,0-.06-.07A.06.06,0,0,1,198,262.31Z"></path>
    </g>
    <g class="cls-2">
      <path class="cls-71" d="M278.27,297.43l-.35,9.13a11.6,11.6,0,0,1-.88,4.53,3.46,3.46,0,0,1-1.66,1.61,5.11,5.11,0,0,1-2.25.37,5.13,5.13,0,0,0,2.19-.5,3.25,3.25,0,0,0,1.46-1.6,11.3,11.3,0,0,0,.57-4.42c0-1.51-.1-3-.15-4.56l-.18-4.56a.64.64,0,0,1,.6-.65.63.63,0,0,1,.65.6Z"></path>
    </g>
    <g class="cls-2">
      <path class="cls-71" d="M324.5,288.24a6.49,6.49,0,0,1-.88,3.23,5.67,5.67,0,0,1-2.6,2.33,8.46,8.46,0,0,1-3.42.66l-3.29.13-3.28.13-3.28,0-6.57.09,1.09-1.09c.07,2.58,0,5.15,0,7.73s-.05,5.15-.13,7.73l-.16,3.86a24.33,24.33,0,0,1-.38,3.95,6.77,6.77,0,0,1-1.83,3.65A4.8,4.8,0,0,1,296,321.8h0a.07.07,0,0,1-.06-.07.06.06,0,0,1,.06-.06,4.68,4.68,0,0,0,3.47-1.29,6.41,6.41,0,0,0,1.47-3.46,23.42,23.42,0,0,0,.2-3.84v-3.86l0-15.46a.13.13,0,0,1,.12-.12h0l13.13,0h3.29a8.16,8.16,0,0,0,3.19-.46,5.19,5.19,0,0,0,2.51-2,7,7,0,0,0,1.08-3,.05.05,0,0,1,.07-.05S324.5,288.2,324.5,288.24Z"></path>
    </g>
    <rect class="cls-67" x="131.99" y="419.01" width="231.73" height="4.44"></rect>
    <polygon class="cls-1" points="362.93 331.06 362.93 329.64 132.79 329.64 132.79 331.06 132.79 418.21 362.93 418.21 362.93 331.06"></polygon>
    <path class="cls-6" d="M132,331.06V419H363.73V328.84H132Zm.8,0v-1.42H362.93v88.57H132.79Z"></path>
    <path class="cls-6" d="M212.62,318.18h75.85c0-.26,0-.53-.05-.8H210.54c-.67.29-1.35.56-2,.8Z"></path>
    <path class="cls-6" d="M381.49,317.38H304.55a7,7,0,0,1-.06.8h77l-1.77,10.66h-7.11V444.77h.89V451h-3.08l-.33,2.46a8,8,0,1,1-3.84,0l-.33-2.46h-3.08v-6.22h.89V423.45H132v21.32h.89V451H129.8l-.33,2.46a8,8,0,1,1-3.84,0L125.3,451h-3.08v-6.22h.89V331.06h0v-2.22H116l-1.77-10.66h74.31c-.7-.24-1.39-.51-2.06-.8h-73.2l.16.93L115.21,329l.12.67h7V444h-.89v7.82h3.18l.15,1.09a8.8,8.8,0,1,0,5.61,0l.14-1.09h3.18V444h-.89V424.25H362.93V444H362v7.82h3.18l.14,1.09a8.8,8.8,0,1,0,5.61,0l.15-1.09h3.18V444h-.89V329.64h7l.12-.67,1.77-10.66.16-.93Z"></path>
    <path class="cls-9" d="M228.61,298.11h35.47V308.2a8.87,8.87,0,0,0,17.74,0V298.12h5.79v19.26h.81c0-.06,0-.11,0-.16v-19.9H281V308.2a8.07,8.07,0,0,1-16.14,0V297.32h-36.1a6.77,6.77,0,0,1-.76-.08,30.66,30.66,0,0,1-17.48,20.14h1.93A31.38,31.38,0,0,0,228.61,298.11Z"></path>
    <path class="cls-9" d="M184.36,280.41a8.84,8.84,0,1,0,8.84,8.84A8.83,8.83,0,0,0,184.36,280.41Zm0,16.88a8,8,0,1,1,8-8A8,8,0,0,1,184.36,297.29Z"></path>
    <path class="cls-9" d="M305.36,298.12h14.38a8.87,8.87,0,0,0,0-17.74H228.61a31.39,31.39,0,1,0-44.06,37h1.93A30.6,30.6,0,1,1,228,281.25c.26,0,.51-.07.76-.07h91a8.07,8.07,0,0,1,0,16.14H304.56v19.9s0,.1,0,.16h.81V298.12Z"></path>
    <polygon class="cls-8" points="539.72 200.71 527.27 200.83 527.14 188.3 539.63 188.22 539.72 200.71"></polygon>
  </g>
</svg>
